# xmcd
#
# Track frame offsets: 
#        150
#        9578
#        45981
#        60454
#        89693
#        95200
#        104291
#        139211
#        152335
#        166305
#        185064
#        217721
#        227499
#        267287
#
# Disc length: 3726 seconds
#
# Revision: 1
# Processed by: cddbd v1.5.2PL0 Copyright (c) Steve Scherf et al.
# Submitted via: ExactAudioCopy v1.1
#
DISCID=b30e8c0e
DTITLE=Douglas Adams - Per Anhalter durch die Galaxis 2 - CD02
DYEAR=2005
DGENRE=Hörspiel
TTITLE0=Der Flug in den Alptraum
TTITLE1=Der Flug in den Alptraum
TTITLE2=Der Flug in den Alptraum
TTITLE3=Der Flug in den Alptraum
TTITLE4=Der Flug in den Alptraum
TTITLE5=Der Kampf um das Leben, das Universum und den ganzen Rest
TTITLE6=Der Kampf um das Leben, das Universum und den ganzen Rest
TTITLE7=Der Kampf um das Leben, das Universum und den ganzen Rest
TTITLE8=Der Kampf um das Leben, das Universum und den ganzen Rest
TTITLE9=Der Kampf um das Leben, das Universum und den ganzen Rest
TTITLE10=Irrungen und Wirrungen des Arthur Dent
TTITLE11=Irrungen und Wirrungen des Arthur Dent
TTITLE12=Irrungen und Wirrungen des Arthur Dent
TTITLE13=Irrungen und Wirrungen des Arthur Dent
EXTD=
EXTT0=
EXTT1=
EXTT2=
EXTT3=
EXTT4=
EXTT5=
EXTT6=
EXTT7=
EXTT8=
EXTT9=
EXTT10=
EXTT11=
EXTT12=
EXTT13=
PLAYORDER=
